<?xml version="1.0" encoding="UTF-8" standalone="no"?>
<svg
   xmlns:dc="http://purl.org/dc/elements/1.1/"
   xmlns:cc="http://creativecommons.org/ns#"
   xmlns:rdf="http://www.w3.org/1999/02/22-rdf-syntax-ns#"
   xmlns:svg="http://www.w3.org/2000/svg"
   xmlns="http://www.w3.org/2000/svg"
   id="svg8"
   version="1.1"
   viewBox="0 0 111.97696 26.98752"
   height="26.98752mm"
   width="111.97696mm">
  <defs
     id="defs2" />
  <metadata
     id="metadata5">
    <rdf:RDF>
      <cc:Work
         rdf:about="">
        <dc:format>image/svg+xml</dc:format>
        <dc:type
           rdf:resource="http://purl.org/dc/dcmitype/StillImage" />
        <dc:title></dc:title>
      </cc:Work>
    </rdf:RDF>
  </metadata>
  <g
     transform="translate(564.74443,-220.00625)"
     id="layer1">
    <path
       style="fill:#eceee9;fill-opacity:1;stroke-width:0.26458332"
       d="m -452.76747,225.66833 h -0.52917 v -1.32291 l -0.52916,0.87312 h -0.26459 l -0.26458,-0.87312 v 1.32291 h -0.52917 v -2.24895 h 0.52917 l 0.52917,1.21708 0.52916,-1.21708 h 0.52917 z m -2.38125,-1.85208 h -0.52917 v 1.85208 h -0.52916 v -1.85208 h -0.52917 v -0.39687 h 1.5875 z m -2.91042,8.33438 h -1.5875 v -5.08 l -1.85208,3.30729 h -1.05833 l -1.5875,-3.30729 v 5.08 h -1.85209 v -8.73125 h 1.85209 l 2.11666,4.70958 2.38125,-4.70958 h 1.5875 z m -10.31875,0 h -1.85208 l -0.52917,-1.53459 h -2.91042 l -0.52916,1.53459 h -1.85209 l 3.175,-8.73125 h 1.32292 z m -2.64583,-2.9898 -1.05834,-3.175 -1.05833,3.175 z m -7.67292,2.9898 h -5.82083 v -8.73125 h 5.82083 v 1.50812 h -3.96875 v 2.06375 h 3.43958 v 1.50813 h -3.43958 v 2.14312 h 3.96875 z m -8.46667,-7.22313 h -2.11666 v 7.22313 h -1.85209 v -7.22313 h -2.38125 v -1.50812 h 6.35 z m -8.46666,4.65667 c 0,1.79916 -1.5875,2.61937 -3.175,2.64583 -1.5875,0 -2.64584,-0.37042 -3.175,-1.16417 l 1.05833,-1.08479 c 0.52917,0.47625 1.05833,0.74084 2.11667,0.74084 1.05833,0 1.5875,-0.37042 1.5875,-1.0848 0,-0.66145 -0.52917,-0.9525 -1.05834,-1.05833 l -1.05833,-0.13229 c -1.5875,-0.21167 -2.38125,-1.03188 -2.38125,-2.46063 0,-0.79375 0.26458,-1.42875 0.79375,-1.93145 0.52917,-0.47625 1.32292,-0.71438 2.11667,-0.71438 1.32291,0 2.11666,0.34396 2.91041,1.00542 l -1.05833,1.08479 c -0.52917,-0.39688 -1.05833,-0.60854 -1.85208,-0.60854 -0.79375,0.0529 -1.32292,0.34396 -1.32292,1.11125 0,0.60854 0.52917,0.89958 1.05833,0.9525 l 1.05834,0.15875 c 1.32291,0.15875 2.38125,1.05833 2.38125,2.54 z m -13.49375,-1.5875 c 0,2.38125 -2.11667,4.31271 -4.49792,4.31271 -2.38125,0 -4.23333,-1.93146 -4.23333,-4.31271 0,-2.35479 1.85208,-4.28625 4.23333,-4.28625 2.38125,0 4.49792,1.93146 4.49792,4.28625 z m -4.49792,-7.99042 c -4.23333,0 -7.9375,3.54542 -7.9375,7.96396 l -5.02708,7.17021 c -0.26459,-0.0265 -0.26459,-0.0529 -0.52917,-0.0529 -1.05833,0 -2.11667,0.3175 -3.175,0.84666 l -22.59542,-9.10166 c -0.60854,-2.69875 -3.01625,-4.70958 -5.87375,-4.70958 -3.28083,0 -5.98487,2.69875 -5.98487,6.00604 0,3.28083 2.70404,5.97958 5.98487,5.97958 1.13771,0 2.16959,-0.29104 3.06917,-0.84666 l 22.75417,9.10166 c 0.52916,2.77813 2.91041,4.63021 5.82083,4.63021 2.91042,0 5.55625,-2.38125 5.82083,-5.31812 l 7.67292,-5.60917 c 4.49792,0 8.20208,-3.59833 8.20208,-8.04333 0,-4.41855 -3.70416,-8.01688 -8.20208,-8.01688 z m 0,2.64583 c 3.175,0 5.55625,2.40771 5.55625,5.37105 0,2.98979 -2.38125,5.3975 -5.55625,5.3975 -2.91042,0 -5.29167,-2.40771 -5.29167,-5.3975 0,-2.96334 2.38125,-5.37105 5.29167,-5.37105 z m -45.13792,1.05834 c 1.69334,0 3.175,0.92604 3.91584,2.32833 l -2.19605,-0.87312 v 0 c -1.7727,-0.635 -3.73062,0.23812 -4.44499,1.98437 -0.68792,1.77271 0.10583,3.75708 1.82562,4.52438 v 0 l 1.85208,0.74083 c -0.29104,0.0794 -0.60854,0.10583 -0.9525,0.10583 -2.43416,0 -4.39208,-1.95791 -4.39208,-4.39208 0,-2.46063 1.95792,-4.41854 4.39208,-4.41854 z m 31.64417,12.96458 c 2.38125,0 4.23333,1.98438 4.23333,4.41854 0,2.46063 -1.85208,4.31271 -4.23333,4.31271 -1.85208,0 -3.175,-0.79375 -3.96875,-2.24896 0.79375,0.39688 1.32292,0.66146 2.11667,0.92604 1.85208,0.79375 3.70416,-0.26458 4.49791,-1.95791 0.52917,-1.64042 0,-3.88938 -1.85208,-4.60375 l -1.85208,-0.74084 c 0.26458,-0.0529 0.79375,-0.10583 1.05833,-0.10583 z"
       id="path815" />
  </g>
</svg>
