<?xml version="1.0" encoding="UTF-8" standalone="no"?>
<svg
   xmlns:dc="http://purl.org/dc/elements/1.1/"
   xmlns:cc="http://creativecommons.org/ns#"
   xmlns:rdf="http://www.w3.org/1999/02/22-rdf-syntax-ns#"
   xmlns:svg="http://www.w3.org/2000/svg"
   xmlns="http://www.w3.org/2000/svg"
   id="svg8"
   version="1.1"
   viewBox="0 0 88.900002 19.75555"
   height="19.75555mm"
   width="88.900002mm">
  <defs
     id="defs2" />
  <metadata
     id="metadata5">
    <rdf:RDF>
      <cc:Work
         rdf:about="">
        <dc:format>image/svg+xml</dc:format>
        <dc:type
           rdf:resource="http://purl.org/dc/dcmitype/StillImage" />
        <dc:title></dc:title>
      </cc:Work>
    </rdf:RDF>
  </metadata>
  <g
     transform="translate(302.68333,-149.00972)"
     id="layer1">
    <g
       style="opacity:1;stroke:none;stroke-opacity:1"
       transform="translate(-168.89236,39.070128)"
       id="g964">
      <path
         id="path966"
         d="m -131.32153,128.46042 v -1.23472 h -1.23472 -1.23472 v -7.40833 -7.40834 h 1.23472 1.23472 v -1.23472 -1.23472 h 1.23473 1.23472 v 1.23472 1.23472 h -1.23472 -1.23473 v 7.40834 7.40833 h 1.23473 1.23472 v 1.23472 1.23472 h -1.23472 -1.23473 z m 14.81667,0 v -1.23472 h 1.23472 1.23473 v -8.64306 -8.64305 h 2.46944 2.46945 v 1.23472 1.23472 h -1.23473 -1.23472 v 8.64306 8.64305 h -2.46944 -2.46945 z m 12.34722,-1.23472 v -2.46944 h 1.23473 1.23472 v 2.46944 2.46944 h -1.23472 -1.23473 z m 9.877779,-6.17361 v -8.64306 h -1.234722 -1.234723 v -1.23472 -1.23472 h 2.469445 2.469445 v 8.64305 8.64306 h 1.234722 1.234722 v 1.23472 1.23472 h -2.469444 -2.469445 z m 12.347223,3.70417 v -4.93889 h -1.234723 -1.234722 v -4.93889 -4.93889 h 2.469445 2.469444 v 3.70417 3.70416 h 1.234722 1.234723 v 1.23472 1.23473 h -1.234723 -1.234722 v 4.93889 4.93888 h -1.234722 -1.234722 z m 14.816666,0 v -4.93889 h -1.234722 -1.234722 v -1.23473 -1.23472 h 1.234722 1.234722 v -3.70416 -3.70417 h 2.469445 2.469444 v 1.23472 1.23472 h -1.234722 -1.234722 v 7.40834 7.40833 h 1.234722 1.234722 v 1.23472 1.23472 h -2.469444 -2.469445 z m 17.286112,3.70416 v -1.23472 h 1.234722 1.234722 v -7.40833 -7.40834 h -1.234722 -1.234722 v -1.23472 -1.23472 h 1.234722 1.234722 v 1.23472 1.23472 h 1.234723 1.234722 v 7.40834 7.40833 h -1.234722 -1.234723 v 1.23472 1.23472 h -1.234722 -1.234722 z m -79.02222,-4.93889 v -1.23472 h 4.93889 4.93889 v -1.23472 -1.23472 h -3.70417 -3.70417 v -1.23473 -1.23472 h -1.23472 -1.23472 v -1.23472 -1.23472 h 1.23472 1.23472 v -1.23472 -1.23473 h 4.93889 4.93889 v 1.23473 1.23472 h -4.93889 -4.93889 v 1.23472 1.23472 h 3.70417 3.70417 v 1.23472 1.23473 h 1.23472 1.23472 v 1.23472 1.23472 h -1.23472 -1.23472 v 1.23472 1.23473 h -4.93889 -4.93889 z m 19.75556,-3.70416 v -4.93889 h 1.23472 1.23472 v -1.23472 -1.23473 h 3.70417 3.70416 v 1.23473 1.23472 h 1.234722 1.234722 v 4.93889 4.93889 h -1.234722 -1.234722 v -2.46945 -2.46944 h -3.70416 -3.70417 v 2.46944 2.46945 h -1.23472 -1.23472 z m 9.87777,-3.70417 v -1.23472 h -3.70416 -3.70417 v 1.23472 1.23472 h 3.70417 3.70416 z m 12.347222,7.40833 v -1.23472 h -1.234722 -1.234722 v -4.93889 -4.93889 h 1.234722 1.234722 v 4.93889 4.93889 h 1.234723 1.234722 v 1.23472 1.23473 h -1.234722 -1.234723 z m 9.877779,0 v -1.23472 h 1.234722 1.234722 v -3.70417 -3.70416 h -1.234722 -1.234722 v -1.23472 -1.23473 h 3.704166 3.704167 v 1.23473 1.23472 h -1.234722 -1.234723 v 3.70416 3.70417 h 1.234723 1.234722 v 1.23472 1.23473 h -3.704167 -3.704166 z m 17.286111,0 v -1.23472 h -1.234722 -1.234723 v -3.70417 -3.70416 h 1.234723 1.234722 v -1.23472 -1.23473 h 3.704167 3.704167 v 1.23473 1.23472 h 1.234722 1.234722 v 3.70416 3.70417 h -1.234722 -1.234722 v 1.23472 1.23473 h -3.704167 -3.704167 z m 7.408334,-4.93889 v -3.70416 h -3.704167 -3.704167 v 3.70416 3.70417 h 3.704167 3.704167 z m -4.938889,0 v -1.23472 h 1.234722 1.234722 v 1.23472 1.23473 h -1.234722 -1.234722 z"
         style="opacity:1;fill:#ebede8;stroke:none;stroke-width:0.35277778;stroke-opacity:1" />
    </g>
  </g>
</svg>
